<?xml version="1.0" encoding="utf-8"?>
<!-- Generator: Adobe Illustrator 16.0.0, SVG Export Plug-In . SVG Version: 6.00 Build 0)  -->
<!DOCTYPE svg PUBLIC "-//W3C//DTD SVG 1.1//EN" "http://www.w3.org/Graphics/SVG/1.1/DTD/svg11.dtd">
<svg version="1.1" id="Layer_1" xmlns="http://www.w3.org/2000/svg" xmlns:xlink="http://www.w3.org/1999/xlink" x="0px" y="0px"
	 width="92.719px" height="63.688px" viewBox="0 0 92.719 63.688" enable-background="new 0 0 92.719 63.688" xml:space="preserve">
<g>
	<path fill="#444444" d="M82,16H10c-1.381,0-2.5-1.119-2.5-2.5S8.619,11,10,11h72c1.381,0,2.5,1.119,2.5,2.5S83.381,16,82,16z"/>
</g>
<g>
	<path fill="#444444" d="M82,34H10c-1.381,0-2.5-1.119-2.5-2.5S8.619,29,10,29h72c1.381,0,2.5,1.119,2.5,2.5S83.381,34,82,34z"/>
</g>
<g>
	<path fill="#444444" d="M82,52H10c-1.381,0-2.5-1.119-2.5-2.5S8.619,47,10,47h72c1.381,0,2.5,1.119,2.5,2.5S83.381,52,82,52z"/>
</g>
</svg>
